<svg xmlns="http://www.w3.org/2000/svg" width="84.781" height="78" viewBox="0 0 84.781 78">
  <g id="Group_212" data-name="Group 212" transform="translate(-1092 -1005)">
    <path id="Rectangle_105" data-name="Rectangle 105" d="M39,1A38.01,38.01,0,0,0,24.209,74.014,38.01,38.01,0,0,0,53.791,3.986,37.761,37.761,0,0,0,39,1m0-1A39,39,0,1,1,0,39,39,39,0,0,1,39,0Z" transform="translate(1092 1005)"/>
    <path id="Path_265" data-name="Path 265" d="M6464.292,1064.32l-.309-.522-10.84-18.32.86-.509,10.531,17.8,47.386-42.094.664.748Z" transform="translate(-5422.12 1018.844) rotate(-9)"/>
  </g>
</svg>
