<svg xmlns="http://www.w3.org/2000/svg" width="78" height="78" viewBox="0 0 78 78">
  <g id="Group_215" data-name="Group 215" transform="translate(-20 -1391.553)">
    <path id="Rectangle_106" data-name="Rectangle 106" d="M39,1A38.01,38.01,0,0,0,24.209,74.014,38.01,38.01,0,0,0,53.791,3.986,37.761,37.761,0,0,0,39,1m0-1A39,39,0,1,1,0,39,39,39,0,0,1,39,0Z" transform="translate(20 1391.553)"/>
    <path id="Path_266" data-name="Path 266" d="M5384.366,1438.1q-1.17,0-2.351-.092a27.188,27.188,0,0,1-7.438-1.552l.374-.927-.187.464.187-.464a26.762,26.762,0,0,0,7.178,1.485,28.255,28.255,0,0,0,7.307-.374,25.954,25.954,0,0,0,8.312-3.075,24.315,24.315,0,0,0,5.765-5.229,39.216,39.216,0,0,0,5.511-10.444l.936.353a40.177,40.177,0,0,1-5.66,10.709,25.274,25.274,0,0,1-6,5.448l-.03.019a26.948,26.948,0,0,1-8.67,3.207A28.786,28.786,0,0,1,5384.366,1438.1Z" transform="matrix(0.899, 0.438, -0.438, 0.899, -4161.149, -2200.971)"/>
  </g>
</svg>
