<svg xmlns="http://www.w3.org/2000/svg" width="96.228" height="88.025" viewBox="0 0 96.228 88.025">
  <g id="Group_209" data-name="Group 209" transform="translate(-141.312 -926.494)">
    <path id="Path_269" data-name="Path 269" d="M5805.649-791.325l-.23-.134-36.107-20.966.842-.411,59.105-28.856.231.135,36.049,21.111-.84.409Zm-34.214-21.023,34.256,19.891,57.731-28.071-34.205-20.03Z" transform="translate(-5628 1768.186)"/>
    <path id="Line_79" data-name="Line 79" d="M.5,37.567h-1V0h1Z" transform="translate(159.324 965.672)"/>
    <path id="Line_72" data-name="Line 72" d="M.5,17.825h-1V0h1Z" transform="translate(217.988 956.759)"/>
    <path id="Line_74" data-name="Line 74" d="M.219,29.1l-.439-.9L58.444-.449l.439.9Z" transform="translate(159.324 974.584)"/>
    <path id="Line_75" data-name="Line 75" d="M34.946,20.964-.252.432l.5-.864L35.45,20.1Z" transform="translate(142.402 993.537)"/>
    <path id="Line_77" data-name="Line 77" d="M18.24,11.262-.253.431.253-.431,18.746,10.4Z" transform="translate(217.988 974.584)"/>
    <path id="Line_76" data-name="Line 76" d="M.219,29.1l-.438-.9L58.671-.45l.438.9Z" transform="translate(177.6 985.414)"/>
    <path id="Line_78" data-name="Line 78" d="M.221,8.8l-.442-.9L16.7-.448l.442.9Z" transform="translate(142.402 985.189)"/>
  </g>
</svg>
