<svg xmlns="http://www.w3.org/2000/svg" width="111" height="89.854" viewBox="0 0 111 89.854">
  <g id="Group_211" data-name="Group 211" transform="translate(-558 -994.146)">
    <path id="Rectangle_104" data-name="Rectangle 104" d="M1,1V21H72V1H1M0,0H73V22H0Z" transform="translate(596 1062)"/>
    <path id="Line_64" data-name="Line 64" d="M.5,50h-1V0h1Z" transform="translate(558.5 1033.5)"/>
    <path id="Line_67" data-name="Line 67" d="M.5,29h-1V0h1Z" transform="translate(635.5 1033.5)"/>
    <path id="Line_65" data-name="Line 65" d="M.358,39.349l-.716-.7,38-39,.716.7Z" transform="translate(558.5 994.5)"/>
    <path id="Line_66" data-name="Line 66" d="M38.646,39.354l-39-39L.354-.354l39,39Z" transform="translate(596.5 994.5)"/>
    <path id="Line_68" data-name="Line 68" d="M.416,21.277l-.832-.555,14-21,.832.555Z" transform="translate(602.5 1062.5)"/>
    <path id="Line_69" data-name="Line 69" d="M19.638,21.345l-20-21,.724-.69,20,21Z" transform="translate(622.5 1062.5)"/>
    <path id="Line_70" data-name="Line 70" d="M.46,21.2-.46,20.8l9-21L9.46.2Z" transform="translate(654.5 1062.5)"/>
  </g>
</svg>
