<svg xmlns="http://www.w3.org/2000/svg" width="89" height="89" viewBox="0 0 89 89">
  <g id="Group_213" data-name="Group 213" transform="translate(-1093 -1380.553)">
    <g id="Group_210" data-name="Group 210" transform="translate(1071 386.553)">
      <path id="Rectangle_94" data-name="Rectangle 94" d="M1,1V77H77V1H1M0,0H78V78H0Z" transform="translate(22 1005)"/>
      <path id="Rectangle_103" data-name="Rectangle 103" d="M1,1V77H77V1H1M0,0H78V78H0Z" transform="translate(33 994)"/>
      <path id="Line_55" data-name="Line 55" d="M.354,6.354l-.707-.707,6-6,.707.707Z" transform="translate(37.5 1061.5)"/>
      <path id="Line_56" data-name="Line 56" d="M.354,6.354l-.707-.707,6-6,.707.707Z" transform="translate(48.5 1050.5)"/>
      <path id="Line_60" data-name="Line 60" d="M.354,6.354l-.707-.707,6-6,.707.707Z" transform="translate(48.5 1061.5)"/>
      <path id="Line_61" data-name="Line 61" d="M.354,6.354l-.707-.707,6-6,.707.707Z" transform="translate(36.5 1049.5)"/>
      <path id="Line_57" data-name="Line 57" d="M.354,6.354l-.707-.707,6-6,.707.707Z" transform="translate(48.5 1055.5) rotate(90)"/>
      <path id="Line_58" data-name="Line 58" d="M.354,6.354l-.707-.707,6-6,.707.707Z" transform="translate(60.5 1056.5) rotate(90)"/>
      <path id="Line_59" data-name="Line 59" d="M.354,6.354l-.707-.707,6-6,.707.707Z" transform="translate(48.5 1044.5) rotate(90)"/>
    </g>
  </g>
</svg>
