<svg xmlns="http://www.w3.org/2000/svg" width="80.339" height="67.744" viewBox="0 0 80.339 67.744"><defs><clipPath id="a"><path fill="none" stroke="#000" d="M0 0h80.339v67.744H0z"/></clipPath></defs><g clip-path="url(#a)" fill="none" stroke="#000" stroke-linecap="round" stroke-linejoin="round"><path d="M69.293 23.201v44.033H4.86a4.35 4.35 0 1 1 0-8.7h3.863V3.708H4.911a4.4 4.4 0 0 0-4.4 4.4v48.965M9.157 11.123h48.09M13.654 60.289h40.207M57.183 60.289h5.112"/><path d="M18.337 46.796l.124 13.493h18.95V46.604l-9.538-6.62z"/><path d="M24.54 50.868h6.668v9.42H24.54zM71.696 1.929L41.923 32.181l-1.654 8.155 8.4-1.467 29.8-30.279a4.748 4.748 0 0 0-6.768-6.661zM41.923 32.181l6.742 6.687M69.663 4.52l6.195 6.299M66.686 6.975l6.659 6.771M14.666 17.646V27.82M18.474 17.646v5.556"/></g></svg>