<svg xmlns="http://www.w3.org/2000/svg" width="90.99" height="56.713" viewBox="0 0 90.99 56.713"><defs><clipPath id="a"><path fill="none" stroke="#000" d="M0 0h90.99v56.713H0z"/></clipPath></defs><g clip-path="url(#a)" fill="none" stroke="#000" stroke-linecap="round" stroke-linejoin="round"><path d="M57.667 15.232c0 8.121-5.605 14.7-12.52 14.7s-12.521-6.575-12.521-14.7S38.231.532 45.147.532s12.52 6.583 12.52 14.7z"/><path d="M32.634 55.348a83.615 83.615 0 0 0 12.511.833c16.792 0 24.214-4.4 24.214-4.4.488-18.9-9.448-18.9-13.683-20.036s-3.9-3.516-3.9-3.516M39.29 28.232s.332 2.375-3.9 3.516-14.175 1.145-13.689 20.035a11.878 11.878 0 0 0 3.641 1.824M53.355 31.453a8.479 8.479 0 0 1-15.646-.088M33.154 12.695s10.7 2.866 15.748-6.108c.73 3.209 4.352 7.436 8.677 6.951"/><ellipse cx="8.635" cy="10.14" rx="8.635" ry="10.14" transform="translate(65.124 1.624)"/><path d="M90.382 33.743c-.795-9.807-6.7-9.872-9.359-10.588-2.921-.786-2.691-2.424-2.691-2.424M67.591 39.73c1.76.169 3.8.272 6.168.272 11.582 0 16.7-3.033 16.7-3.033M69.72 20.727s.229 1.638-2.691 2.424c-2.527.68-8.242 1.721-9.137 8.766"/><ellipse cx="8.635" cy="10.14" rx="8.635" ry="10.14" transform="translate(8.076 1.624)"/><path d="M33.154 32.192c-.733-7.07-6.616-8.35-9.181-9.041-2.921-.786-2.691-2.424-2.691-2.424M5.074 38.829a48.37 48.37 0 0 0 11.636 1.169 57.117 57.117 0 0 0 6.809-.387M12.672 20.727s.229 1.638-2.691 2.424c-1.318.355-3.435.55-5.333 1.852a8.725 8.725 0 0 0-3.35 4.94 22.474 22.474 0 0 0-.754 7.03M65.125 23.584V11.765s4.934 0 8.635-5.82c3.207 5.82 6.805 5.624 8.635 5.82l.531 11.819M11.276 3.909s2.222 8.333 14.012 6.5M13.489 7.735s-2.222 2.939-5.336 2.853"/></g></svg>