<svg xmlns="http://www.w3.org/2000/svg" width="71.354" height="65.682" viewBox="0 0 71.354 65.682"><defs><clipPath id="a"><path fill="none" stroke="#000" d="M0 0h71.354v65.682H0z"/></clipPath></defs><g clip-path="url(#a)" fill="none" stroke="#000" stroke-linecap="round" stroke-linejoin="round"><path d="M70.818 21.644v29.105a6.672 6.672 0 0 1-6.671 6.672H7.208a6.671 6.671 0 0 1-6.672-6.672V14.933a6.671 6.671 0 0 1 6.672-6.674h8.222M56.695 8.259h7.451a6.672 6.672 0 0 1 6.672 6.671M33.574 8.262h3.713M4.716 48.62h66.103M29.642 57.391l-.669 7.754M42.381 65.145l-.669-7.754M49.932 65.146H21.423"/><path d="M38.826 48.591v-34.74a7.417 7.417 0 0 1 1.365-4.288L46.588.537l6.582 8.614a7.417 7.417 0 0 1 1.524 4.5v34.94M43.134 5.409h7.177M38.825 15.352h15.868M43.801 19.86v23.726M50.042 19.86v23.726M18.988 27.331s-6.823-2.7-5.973-9.186c1.21-9.223 10.039-8.694 8.468-17.608 4.007 1.051 20.942 17.305 4.914 26.794"/><path d="M17.551 48.59s-3.479-11.09 2.265-21.258a10.266 10.266 0 0 1 6.577 0c2.006 5.01 3.89 14.337 1.891 21.259M21.127 11.819s-6.968 3.175-3.175 10.452M17.882 31.722a12.3 12.3 0 0 1 9.918 0M32.932 52.885h4.836"/></g></svg>