<svg id="Group_207" data-name="Group 207" xmlns="http://www.w3.org/2000/svg" xmlns:xlink="http://www.w3.org/1999/xlink" width="158.755" height="44.765" viewBox="0 0 158.755 44.765">
  <defs>
    <clipPath id="clip-path">
      <rect id="Rectangle_102" data-name="Rectangle 102" width="158.755" height="44.765" fill="none"/>
    </clipPath>
  </defs>
  <rect id="Rectangle_100" data-name="Rectangle 100" width="62.557" height="42.48" transform="translate(0 0)" fill="#fff"/>
  <rect id="Rectangle_101" data-name="Rectangle 101" width="60.151" height="40.101" transform="translate(1.203 1.165)" fill="#034ea2"/>
  <path id="Path_229" data-name="Path 229" d="M49.195,13.823l1.269-.926,1.269.926-.483-1.5,1.289-.927H50.95l-.486-1.516L49.978,11.4l-1.588,0,1.289.927Z" transform="translate(-19.198 -3.921)" fill="#fff200"/>
  <path id="Path_230" data-name="Path 230" d="M38.306,16.747l1.269-.926,1.269.926-.483-1.5,1.289-.927H40.061L39.575,12.8l-.486,1.52-1.588,0,1.288.927Z" transform="translate(-14.878 -5.08)" fill="#fff200"/>
  <path id="Path_231" data-name="Path 231" d="M31.609,20.79l-.486,1.52-1.588,0,1.289.926-.483,1.5,1.269-.927,1.269.927-.483-1.5,1.289-.926H32.1Z" transform="translate(-11.717 -8.248)" fill="#fff200"/>
  <path id="Path_232" data-name="Path 232" d="M28.686,34.681l1.269.926-.483-1.5,1.289-.926H29.172l-.486-1.518L28.2,33.186l-1.589,0,1.289.926-.483,1.5Z" transform="translate(-10.558 -12.563)" fill="#fff200"/>
  <path id="Path_233" data-name="Path 233" d="M32.1,44.09l-.486-1.518-.486,1.52-1.588,0,1.288.926-.483,1.5,1.269-.928,1.269.928-.483-1.5,1.289-.926Z" transform="translate(-11.717 -16.89)" fill="#fff200"/>
  <path id="Path_234" data-name="Path 234" d="M40.077,52.073l-.486-1.516-.486,1.518-1.589,0L38.8,53l-.482,1.5,1.269-.927,1.269.927L40.378,53l1.288-.926Z" transform="translate(-14.884 -20.058)" fill="#fff200"/>
  <path id="Path_235" data-name="Path 235" d="M50.952,54.964l-.486-1.518-.486,1.52-1.589,0,1.288.926-.482,1.5,1.269-.927,1.269.927-.483-1.5,1.289-.926Z" transform="translate(-19.198 -21.204)" fill="#fff200"/>
  <path id="Path_236" data-name="Path 236" d="M61.827,52.073l-.486-1.516-.487,1.518-1.588,0L60.554,53l-.483,1.5,1.269-.927,1.269.927L62.127,53l1.289-.926Z" transform="translate(-23.513 -20.058)" fill="#fff200"/>
  <path id="Path_237" data-name="Path 237" d="M69.811,44.09l-.487-1.518-.487,1.52-1.587,0,1.289.926-.483,1.5,1.269-.928,1.269.928-.484-1.5L71.4,44.09Z" transform="translate(-26.68 -16.89)" fill="#fff200"/>
  <path id="Path_238" data-name="Path 238" d="M74.289,33.152H72.7l-.487-1.518-.485,1.52-1.59,0,1.289.926-.482,1.5,1.267-.928,1.269.928L73,34.078Z" transform="translate(-27.826 -12.55)" fill="#fff200"/>
  <path id="Path_239" data-name="Path 239" d="M68.054,24.7l1.269-.926,1.269.926-.484-1.5,1.289-.925H69.81l-.487-1.518-.487,1.52-1.588,0,1.289.925Z" transform="translate(-26.68 -8.236)" fill="#fff200"/>
  <path id="Path_240" data-name="Path 240" d="M61.372,12.808l-.486,1.52-1.589,0,1.287.928-.482,1.5,1.271-.928,1.267.928-.482-1.5,1.289-.928H61.857Z" transform="translate(-23.525 -5.081)" fill="#fff200"/>
  <path id="Path_241" data-name="Path 241" d="M114.048,10.885V1.927h6.141V3.443h-4.332v2.12h3.74V7.078h-3.74v3.807Z" transform="translate(-45.247 -0.765)" fill="#034ea2"/>
  <path id="Path_242" data-name="Path 242" d="M126.678,1.927h1.717V3.515h-1.717Zm0,2.469h1.717v6.489h-1.717Z" transform="translate(-50.258 -0.764)" fill="#034ea2"/>
  <g id="Group_208" data-name="Group 208" transform="translate(0 0)">
    <g id="Group_207-2" data-name="Group 207" clip-path="url(#clip-path)">
      <path id="Path_243" data-name="Path 243" d="M138.336,12.412h-1.717V9.1a5.1,5.1,0,0,0-.11-1.359.952.952,0,0,0-.357-.48,1.023,1.023,0,0,0-.6-.171,1.378,1.378,0,0,0-.8.244,1.232,1.232,0,0,0-.486.648,5.6,5.6,0,0,0-.132,1.491v2.939h-1.717V5.923h1.6v.953a2.6,2.6,0,0,1,2.139-1.1,2.569,2.569,0,0,1,1.039.205,1.741,1.741,0,0,1,.712.522,1.9,1.9,0,0,1,.336.721,5.387,5.387,0,0,1,.095,1.155Z" transform="translate(-52.536 -2.292)" fill="#034ea2"/>
      <path id="Path_244" data-name="Path 244" d="M146.1,7.9l-1.558-.281a2.427,2.427,0,0,1,.9-1.394,3.312,3.312,0,0,1,1.906-.452,4.105,4.105,0,0,1,1.711.272,1.7,1.7,0,0,1,.791.69,3.533,3.533,0,0,1,.23,1.537l-.019,2a6.96,6.96,0,0,0,.083,1.261,3.683,3.683,0,0,0,.308.871h-1.7c-.045-.114-.1-.284-.165-.507-.028-.1-.049-.169-.062-.2a3.1,3.1,0,0,1-.94.641,2.7,2.7,0,0,1-1.07.214,2.211,2.211,0,0,1-1.579-.544,1.807,1.807,0,0,1-.577-1.375,1.847,1.847,0,0,1,.262-.98,1.717,1.717,0,0,1,.737-.66,5.782,5.782,0,0,1,1.366-.4,9.259,9.259,0,0,0,1.668-.422V8.007a.889.889,0,0,0-.244-.706,1.465,1.465,0,0,0-.923-.211,1.231,1.231,0,0,0-.715.18,1.255,1.255,0,0,0-.415.633M148.4,9.3a10.686,10.686,0,0,1-1.045.263,3.136,3.136,0,0,0-.935.3.716.716,0,0,0-.336.605.841.841,0,0,0,.269.623.939.939,0,0,0,.684.262,1.49,1.49,0,0,0,.886-.305,1.078,1.078,0,0,0,.409-.568,3.365,3.365,0,0,0,.068-.837Z" transform="translate(-57.274 -2.292)" fill="#034ea2"/>
      <path id="Path_245" data-name="Path 245" d="M162.544,12.412h-1.717V9.1a5.063,5.063,0,0,0-.111-1.359.951.951,0,0,0-.357-.48,1.025,1.025,0,0,0-.6-.171,1.378,1.378,0,0,0-.8.244,1.234,1.234,0,0,0-.485.648,5.6,5.6,0,0,0-.132,1.491v2.939h-1.717V5.923h1.6v.953a2.6,2.6,0,0,1,2.139-1.1,2.571,2.571,0,0,1,1.039.205,1.739,1.739,0,0,1,.711.522,1.892,1.892,0,0,1,.337.721,5.386,5.386,0,0,1,.095,1.155Z" transform="translate(-62.14 -2.292)" fill="#034ea2"/>
      <path id="Path_246" data-name="Path 246" d="M174.729,7.842l-1.693.305a1.232,1.232,0,0,0-.388-.764,1.173,1.173,0,0,0-.785-.256,1.283,1.283,0,0,0-1.023.443,2.271,2.271,0,0,0-.382,1.482,2.626,2.626,0,0,0,.388,1.632,1.273,1.273,0,0,0,1.042.477,1.158,1.158,0,0,0,.8-.278,1.675,1.675,0,0,0,.44-.956l1.686.287a2.991,2.991,0,0,1-1.008,1.754,3.12,3.12,0,0,1-2,.592,2.972,2.972,0,0,1-2.27-.9,3.484,3.484,0,0,1-.846-2.487,3.49,3.49,0,0,1,.849-2.5,3.016,3.016,0,0,1,2.3-.895,3.138,3.138,0,0,1,1.885.51,2.828,2.828,0,0,1,1.005,1.555" transform="translate(-66.926 -2.292)" fill="#034ea2"/>
      <path id="Path_247" data-name="Path 247" d="M180.2,9.076a3.511,3.511,0,0,1,.422-1.656A2.9,2.9,0,0,1,181.814,6.2a3.55,3.55,0,0,1,1.726-.421,3.239,3.239,0,0,1,2.414.956,3.3,3.3,0,0,1,.941,2.417,3.343,3.343,0,0,1-.95,2.441,3.212,3.212,0,0,1-2.393.968,3.763,3.763,0,0,1-1.7-.4,2.767,2.767,0,0,1-1.231-1.182,3.938,3.938,0,0,1-.422-1.9m1.76.092a2.148,2.148,0,0,0,.458,1.479,1.5,1.5,0,0,0,2.257,0,2.179,2.179,0,0,0,.455-1.491,2.139,2.139,0,0,0-.455-1.467,1.5,1.5,0,0,0-2.257,0,2.148,2.148,0,0,0-.458,1.479" transform="translate(-71.491 -2.292)" fill="#034ea2"/>
      <path id="Path_248" data-name="Path 248" d="M194.765,12.508,192.15,6.019h1.8l1.222,3.312.354,1.106c.094-.281.153-.466.177-.556q.086-.275.183-.55l1.234-3.312h1.766l-2.578,6.489Z" transform="translate(-76.233 -2.388)" fill="#034ea2"/>
      <path id="Path_249" data-name="Path 249" d="M206.05,6.275l-1.558-.281a2.424,2.424,0,0,1,.9-1.393A3.314,3.314,0,0,1,207.3,4.15a4.119,4.119,0,0,1,1.711.271,1.709,1.709,0,0,1,.791.691,3.53,3.53,0,0,1,.23,1.537l-.019,2a6.951,6.951,0,0,0,.083,1.262,3.669,3.669,0,0,0,.308.871h-1.7q-.068-.171-.165-.507c-.028-.1-.049-.17-.061-.2a3.094,3.094,0,0,1-.941.642,2.7,2.7,0,0,1-1.07.214,2.213,2.213,0,0,1-1.579-.544,1.808,1.808,0,0,1-.577-1.375,1.844,1.844,0,0,1,.264-.981,1.712,1.712,0,0,1,.736-.66,5.752,5.752,0,0,1,1.365-.4,9.365,9.365,0,0,0,1.668-.422V6.38a.887.887,0,0,0-.244-.706,1.463,1.463,0,0,0-.923-.211,1.228,1.228,0,0,0-.714.18,1.254,1.254,0,0,0-.416.632m2.3,1.394a10.7,10.7,0,0,1-1.044.262,3.169,3.169,0,0,0-.936.3.715.715,0,0,0-.335.6.842.842,0,0,0,.269.623.936.936,0,0,0,.684.263,1.493,1.493,0,0,0,.886-.305,1.089,1.089,0,0,0,.41-.568,3.417,3.417,0,0,0,.066-.837ZM206.49,3.5l.843-1.827h1.924L207.577,3.5Z" transform="translate(-81.059 -0.665)" fill="#034ea2"/>
      <path id="Path_250" data-name="Path 250" d="M222.495,12.412h-1.717V9.1a5.1,5.1,0,0,0-.11-1.359.953.953,0,0,0-.357-.48,1.024,1.024,0,0,0-.6-.171,1.378,1.378,0,0,0-.8.244,1.232,1.232,0,0,0-.486.648,5.6,5.6,0,0,0-.132,1.491v2.939H216.58V5.923h1.6v.953a2.6,2.6,0,0,1,2.139-1.1,2.569,2.569,0,0,1,1.039.205,1.741,1.741,0,0,1,.712.522,1.9,1.9,0,0,1,.336.721,5.386,5.386,0,0,1,.095,1.155Z" transform="translate(-85.925 -2.292)" fill="#034ea2"/>
      <path id="Path_251" data-name="Path 251" d="M228.613,9.076a3.511,3.511,0,0,1,.422-1.656A2.9,2.9,0,0,1,230.229,6.2a3.55,3.55,0,0,1,1.726-.421,3.239,3.239,0,0,1,2.414.956,3.3,3.3,0,0,1,.941,2.417,3.343,3.343,0,0,1-.95,2.441,3.212,3.212,0,0,1-2.393.968,3.763,3.763,0,0,1-1.7-.4,2.767,2.767,0,0,1-1.231-1.182,3.938,3.938,0,0,1-.422-1.9m1.76.092a2.148,2.148,0,0,0,.458,1.479,1.5,1.5,0,0,0,2.257,0,2.179,2.179,0,0,0,.455-1.491,2.139,2.139,0,0,0-.455-1.467,1.5,1.5,0,0,0-2.257,0,2.148,2.148,0,0,0-.458,1.479" transform="translate(-90.699 -2.292)" fill="#034ea2"/>
      <path id="Path_252" data-name="Path 252" d="M114.028,35.777V26.819h6.642v1.515h-4.833v1.986h4.5V31.83h-4.5v2.438h5v1.509Z" transform="translate(-45.239 -10.64)" fill="#034ea2"/>
      <path id="Path_253" data-name="Path 253" d="M129.081,37.4l-2.615-6.489h1.8l1.222,3.312.354,1.106c.094-.281.153-.466.177-.556q.086-.275.183-.55l1.234-3.312h1.766L130.627,37.4Z" transform="translate(-50.174 -12.264)" fill="#034ea2"/>
      <path id="Path_254" data-name="Path 254" d="M140.976,37.3h-1.717V30.815h1.594v.923a2.764,2.764,0,0,1,.737-.861,1.352,1.352,0,0,1,.743-.208,2.178,2.178,0,0,1,1.13.324l-.531,1.5a1.5,1.5,0,0,0-.807-.281.955.955,0,0,0-.611.2,1.357,1.357,0,0,0-.394.718,10.187,10.187,0,0,0-.144,2.175Z" transform="translate(-55.249 -12.167)" fill="#034ea2"/>
      <path id="Path_255" data-name="Path 255" d="M146.794,33.968a3.511,3.511,0,0,1,.422-1.656,2.9,2.9,0,0,1,1.194-1.222,3.55,3.55,0,0,1,1.726-.421,3.239,3.239,0,0,1,2.414.956,3.3,3.3,0,0,1,.941,2.417,3.343,3.343,0,0,1-.95,2.441,3.212,3.212,0,0,1-2.393.968,3.764,3.764,0,0,1-1.7-.4,2.767,2.767,0,0,1-1.231-1.182,3.938,3.938,0,0,1-.422-1.9m1.76.092a2.148,2.148,0,0,0,.458,1.479,1.5,1.5,0,0,0,2.257,0,2.179,2.179,0,0,0,.455-1.491,2.139,2.139,0,0,0-.455-1.467,1.5,1.5,0,0,0-2.257,0,2.148,2.148,0,0,0-.458,1.479" transform="translate(-58.239 -12.168)" fill="#034ea2"/>
      <path id="Path_256" data-name="Path 256" d="M160.042,30.816h1.6v.953a2.4,2.4,0,0,1,.843-.794,2.329,2.329,0,0,1,1.179-.305,2.475,2.475,0,0,1,1.919.886,3.586,3.586,0,0,1,.788,2.469,3.7,3.7,0,0,1-.794,2.526,2.476,2.476,0,0,1-1.925.9,2.187,2.187,0,0,1-.974-.214,3.275,3.275,0,0,1-.92-.733v3.269h-1.717Zm1.7,3.135a2.5,2.5,0,0,0,.434,1.616,1.328,1.328,0,0,0,1.057.522,1.241,1.241,0,0,0,1-.48,2.47,2.47,0,0,0,.4-1.573,2.347,2.347,0,0,0-.41-1.515,1.267,1.267,0,0,0-1.014-.5,1.317,1.317,0,0,0-1.045.486,2.16,2.16,0,0,0-.416,1.439" transform="translate(-63.494 -12.168)" fill="#034ea2"/>
      <path id="Path_257" data-name="Path 257" d="M171.791,35.452l1.723-.262a1.264,1.264,0,0,0,.446.761,1.507,1.507,0,0,0,.941.259,1.7,1.7,0,0,0,1-.244.546.546,0,0,0,.226-.458.451.451,0,0,0-.122-.324,1.367,1.367,0,0,0-.574-.226,9.27,9.27,0,0,1-2.634-.837,1.673,1.673,0,0,1-.77-1.46,1.8,1.8,0,0,1,.666-1.417,3.109,3.109,0,0,1,2.066-.575,3.6,3.6,0,0,1,1.979.434,2.215,2.215,0,0,1,.892,1.283l-1.619.3a1,1,0,0,0-.394-.58,1.442,1.442,0,0,0-.828-.2,1.867,1.867,0,0,0-.971.189.407.407,0,0,0-.2.349.378.378,0,0,0,.171.311,6.44,6.44,0,0,0,1.6.483,4.775,4.775,0,0,1,1.915.764,1.587,1.587,0,0,1,.538,1.277,1.961,1.961,0,0,1-.746,1.534,3.3,3.3,0,0,1-2.206.641,3.621,3.621,0,0,1-2.1-.538,2.476,2.476,0,0,1-1.011-1.461" transform="translate(-68.156 -12.167)" fill="#034ea2"/>
      <path id="Path_258" data-name="Path 258" d="M184.229,35.777V26.819h1.717v4.754l2.01-2.285h2.114l-2.218,2.371,2.377,4.118h-1.851l-1.631-2.915-.8.837v2.078Z" transform="translate(-73.09 -10.64)" fill="#034ea2"/>
      <path id="Path_259" data-name="Path 259" d="M195.209,33.968a3.511,3.511,0,0,1,.422-1.656,2.9,2.9,0,0,1,1.194-1.222,3.55,3.55,0,0,1,1.726-.421,3.239,3.239,0,0,1,2.414.956,3.3,3.3,0,0,1,.941,2.417,3.343,3.343,0,0,1-.95,2.441,3.212,3.212,0,0,1-2.393.968,3.763,3.763,0,0,1-1.7-.4,2.767,2.767,0,0,1-1.231-1.182,3.938,3.938,0,0,1-.422-1.9m1.76.092a2.148,2.148,0,0,0,.458,1.479,1.5,1.5,0,0,0,2.257,0,2.179,2.179,0,0,0,.455-1.491,2.139,2.139,0,0,0-.455-1.467,1.5,1.5,0,0,0-2.257,0,2.148,2.148,0,0,0-.458,1.479" transform="translate(-77.447 -12.168)" fill="#034ea2"/>
      <path id="Path_260" data-name="Path 260" d="M212.785,37.4v-.972a2.5,2.5,0,0,1-.932.819,2.609,2.609,0,0,1-1.219.3,2.386,2.386,0,0,1-1.173-.287,1.7,1.7,0,0,1-.752-.807,3.6,3.6,0,0,1-.232-1.436V30.911h1.717v2.982a8.3,8.3,0,0,0,.095,1.678.917.917,0,0,0,.346.489,1.061,1.061,0,0,0,.635.18,1.355,1.355,0,0,0,.788-.241,1.229,1.229,0,0,0,.477-.6,6.983,6.983,0,0,0,.128-1.751V30.911h1.717V37.4Z" transform="translate(-82.71 -12.264)" fill="#034ea2"/>
      <path id="Path_261" data-name="Path 261" d="M231.219,37.4v-.972a2.5,2.5,0,0,1-.932.819,2.609,2.609,0,0,1-1.219.3,2.386,2.386,0,0,1-1.173-.287,1.7,1.7,0,0,1-.752-.807,3.6,3.6,0,0,1-.232-1.436V30.911h1.717v2.982a8.3,8.3,0,0,0,.095,1.678.917.917,0,0,0,.346.489,1.061,1.061,0,0,0,.635.18,1.355,1.355,0,0,0,.788-.241,1.229,1.229,0,0,0,.477-.6,6.983,6.983,0,0,0,.128-1.751V30.911h1.717V37.4Z" transform="translate(-90.024 -12.264)" fill="#034ea2"/>
      <path id="Path_262" data-name="Path 262" d="M245.538,37.3h-1.717V33.992a5.1,5.1,0,0,0-.11-1.359.952.952,0,0,0-.357-.48,1.023,1.023,0,0,0-.6-.171,1.378,1.378,0,0,0-.8.244,1.232,1.232,0,0,0-.486.648,5.6,5.6,0,0,0-.132,1.491V37.3h-1.717V30.815h1.6v.953a2.6,2.6,0,0,1,2.139-1.1,2.569,2.569,0,0,1,1.039.205,1.741,1.741,0,0,1,.712.522,1.9,1.9,0,0,1,.336.721,5.387,5.387,0,0,1,.095,1.155Z" transform="translate(-95.067 -12.167)" fill="#034ea2"/>
      <path id="Path_263" data-name="Path 263" d="M252.314,26.82h1.717v1.588h-1.717Zm0,2.469h1.717v6.489h-1.717Z" transform="translate(-100.102 -10.641)" fill="#034ea2"/>
      <path id="Path_264" data-name="Path 264" d="M257.865,28.393l.843-1.827h1.925l-1.68,1.827Zm.128.794h1.717v6.489h-1.717Z" transform="translate(-102.304 -10.54)" fill="#034ea2"/>
      <path id="Path_270" data-name="Path 270" d="M.762,0V-7.158h.972l3.76,5.62v-5.62H6.4V0H5.43L1.67-5.625V0ZM11.431-1.67l.908.112a2.216,2.216,0,0,1-.8,1.235,2.393,2.393,0,0,1-1.484.439,2.372,2.372,0,0,1-1.8-.7,2.738,2.738,0,0,1-.667-1.965A2.865,2.865,0,0,1,8.262-4.58,2.281,2.281,0,0,1,10.01-5.3a2.217,2.217,0,0,1,1.7.708A2.813,2.813,0,0,1,12.368-2.6q0,.078,0,.234H8.5A1.993,1.993,0,0,0,8.979-1.06a1.439,1.439,0,0,0,1.084.454,1.345,1.345,0,0,0,.825-.254A1.685,1.685,0,0,0,11.431-1.67ZM8.545-3.091h2.9a1.757,1.757,0,0,0-.332-.981A1.347,1.347,0,0,0,10.02-4.58,1.4,1.4,0,0,0,9-4.175,1.6,1.6,0,0,0,8.545-3.091ZM12.856,0l1.895-2.7L13-5.186h1.1l.8,1.216q.225.347.361.581.215-.322.4-.571l.874-1.226h1.05L15.781-2.744,17.71,0H16.631L15.566-1.611l-.283-.435L13.921,0Zm7.5-.786.127.776a3.26,3.26,0,0,1-.664.078,1.5,1.5,0,0,1-.742-.151.848.848,0,0,1-.371-.4A3.147,3.147,0,0,1,18.6-1.519V-4.5h-.645v-.684H18.6V-6.47L19.478-7v1.812h.884V-4.5h-.884V-1.47a1.532,1.532,0,0,0,.046.483.366.366,0,0,0,.151.171.585.585,0,0,0,.3.063A2.859,2.859,0,0,0,20.361-.786Zm4.321-2.021v-.84l3.032,0V-1a5.354,5.354,0,0,1-1.44.837,4.272,4.272,0,0,1-1.523.281A4.065,4.065,0,0,1,22.834-.33a2.986,2.986,0,0,1-1.3-1.306,4.113,4.113,0,0,1-.439-1.909A4.43,4.43,0,0,1,21.531-5.5a2.906,2.906,0,0,1,1.257-1.345,3.94,3.94,0,0,1,1.89-.439,3.744,3.744,0,0,1,1.4.251,2.327,2.327,0,0,1,.984.7,3.108,3.108,0,0,1,.542,1.172l-.854.234a2.645,2.645,0,0,0-.4-.859,1.643,1.643,0,0,0-.684-.5,2.507,2.507,0,0,0-.986-.188,2.9,2.9,0,0,0-1.123.2,2.1,2.1,0,0,0-.764.52,2.48,2.48,0,0,0-.452.708A3.746,3.746,0,0,0,22.07-3.6,3.5,3.5,0,0,0,22.4-2a2.109,2.109,0,0,0,.959.957A2.971,2.971,0,0,0,24.7-.732a3.178,3.178,0,0,0,1.2-.237,3.1,3.1,0,0,0,.889-.505V-2.808ZM32.549-1.67l.908.112a2.216,2.216,0,0,1-.8,1.235,2.393,2.393,0,0,1-1.484.439,2.372,2.372,0,0,1-1.8-.7,2.738,2.738,0,0,1-.667-1.965A2.865,2.865,0,0,1,29.38-4.58,2.281,2.281,0,0,1,31.128-5.3a2.217,2.217,0,0,1,1.7.708A2.813,2.813,0,0,1,33.486-2.6q0,.078,0,.234H29.614A1.993,1.993,0,0,0,30.1-1.06a1.439,1.439,0,0,0,1.084.454,1.345,1.345,0,0,0,.825-.254A1.685,1.685,0,0,0,32.549-1.67ZM29.663-3.091h2.9a1.757,1.757,0,0,0-.332-.981,1.347,1.347,0,0,0-1.089-.508,1.4,1.4,0,0,0-1.018.405A1.6,1.6,0,0,0,29.663-3.091ZM34.561,0V-5.186h.791v.737A1.864,1.864,0,0,1,37-5.3a2.165,2.165,0,0,1,.862.168,1.356,1.356,0,0,1,.588.442,1.7,1.7,0,0,1,.273.649,5.033,5.033,0,0,1,.049.854V0H37.9V-3.154a2.368,2.368,0,0,0-.1-.8.845.845,0,0,0-.364-.425,1.157,1.157,0,0,0-.613-.159,1.424,1.424,0,0,0-.969.356,1.758,1.758,0,0,0-.408,1.353V0Zm9.111-1.67.908.112a2.216,2.216,0,0,1-.8,1.235A2.393,2.393,0,0,1,42.3.117a2.372,2.372,0,0,1-1.8-.7,2.738,2.738,0,0,1-.667-1.965A2.865,2.865,0,0,1,40.5-4.58,2.281,2.281,0,0,1,42.251-5.3a2.217,2.217,0,0,1,1.7.708A2.813,2.813,0,0,1,44.609-2.6q0,.078,0,.234H40.737a1.993,1.993,0,0,0,.483,1.309A1.439,1.439,0,0,0,42.3-.605a1.345,1.345,0,0,0,.825-.254A1.685,1.685,0,0,0,43.672-1.67ZM40.786-3.091h2.9a1.757,1.757,0,0,0-.332-.981,1.347,1.347,0,0,0-1.089-.508,1.4,1.4,0,0,0-1.018.405A1.6,1.6,0,0,0,40.786-3.091ZM45.674,0V-5.186h.791V-4.4a2.145,2.145,0,0,1,.559-.728.976.976,0,0,1,.564-.176,1.714,1.714,0,0,1,.9.283l-.3.815a1.258,1.258,0,0,0-.645-.19.837.837,0,0,0-.518.173.939.939,0,0,0-.327.481,3.423,3.423,0,0,0-.146,1.025V0ZM52.4-.64a3.273,3.273,0,0,1-.94.586,2.716,2.716,0,0,1-.969.171A1.885,1.885,0,0,1,49.175-.3a1.378,1.378,0,0,1-.459-1.067,1.419,1.419,0,0,1,.173-.7,1.435,1.435,0,0,1,.454-.505,2.135,2.135,0,0,1,.632-.288,6.28,6.28,0,0,1,.781-.132,8.033,8.033,0,0,0,1.567-.3q0-.181,0-.229a.97.97,0,0,0-.249-.757,1.471,1.471,0,0,0-1-.3,1.552,1.552,0,0,0-.916.217,1.328,1.328,0,0,0-.437.769l-.859-.117a2.129,2.129,0,0,1,.386-.891,1.691,1.691,0,0,1,.776-.522A3.463,3.463,0,0,1,51.206-5.3a3.115,3.115,0,0,1,1.079.156,1.422,1.422,0,0,1,.61.393,1.382,1.382,0,0,1,.273.6,4.949,4.949,0,0,1,.044.811v1.172a12.439,12.439,0,0,0,.056,1.55A1.956,1.956,0,0,0,53.491,0h-.918A1.864,1.864,0,0,1,52.4-.64ZM52.324-2.6a6.448,6.448,0,0,1-1.436.332,3.32,3.32,0,0,0-.767.176.764.764,0,0,0-.347.286.75.75,0,0,0-.122.417.749.749,0,0,0,.266.586,1.145,1.145,0,0,0,.779.234,1.813,1.813,0,0,0,.9-.222,1.368,1.368,0,0,0,.581-.608,2.123,2.123,0,0,0,.142-.879Zm4.17,1.816.127.776a3.26,3.26,0,0,1-.664.078,1.5,1.5,0,0,1-.742-.151.848.848,0,0,1-.371-.4,3.147,3.147,0,0,1-.107-1.038V-4.5h-.645v-.684h.645V-6.47L55.61-7v1.812h.884V-4.5H55.61V-1.47a1.532,1.532,0,0,0,.046.483.366.366,0,0,0,.151.171.585.585,0,0,0,.3.063A2.859,2.859,0,0,0,56.494-.786Zm.864-5.361V-7.158h.879v1.011Zm0,6.147V-5.186h.879V0Zm1.89-2.593a2.673,2.673,0,0,1,.8-2.134A2.413,2.413,0,0,1,61.68-5.3a2.327,2.327,0,0,1,1.748.7,2.666,2.666,0,0,1,.679,1.936,3.43,3.43,0,0,1-.3,1.575,2.126,2.126,0,0,1-.874.891A2.545,2.545,0,0,1,61.68.117a2.331,2.331,0,0,1-1.76-.7A2.789,2.789,0,0,1,59.248-2.593Zm.9,0A2.209,2.209,0,0,0,60.586-1.1a1.393,1.393,0,0,0,1.094.5,1.385,1.385,0,0,0,1.089-.5A2.261,2.261,0,0,0,63.2-2.622a2.142,2.142,0,0,0-.437-1.458,1.39,1.39,0,0,0-1.086-.5,1.4,1.4,0,0,0-1.094.493A2.2,2.2,0,0,0,60.151-2.593ZM65.137,0V-5.186h.791v.737a1.864,1.864,0,0,1,1.65-.854,2.165,2.165,0,0,1,.862.168,1.356,1.356,0,0,1,.588.442,1.7,1.7,0,0,1,.273.649,5.032,5.032,0,0,1,.049.854V0h-.879V-3.154a2.368,2.368,0,0,0-.1-.8.845.845,0,0,0-.364-.425,1.157,1.157,0,0,0-.613-.159,1.424,1.424,0,0,0-.969.356,1.758,1.758,0,0,0-.408,1.353V0ZM70.83,0V-7.158h5.176v.845H71.777v2.192h3.96v.84h-3.96V-.845h4.395V0ZM82.178-7.158h.947v4.136a4.895,4.895,0,0,1-.244,1.714A2.091,2.091,0,0,1,82-.276a3.121,3.121,0,0,1-1.672.4,3.437,3.437,0,0,1-1.646-.347,1.979,1.979,0,0,1-.913-1A4.781,4.781,0,0,1,77.5-3.022V-7.158h.947v4.131a4.027,4.027,0,0,0,.173,1.375,1.316,1.316,0,0,0,.6.681,2.067,2.067,0,0,0,1.033.239,1.974,1.974,0,0,0,1.489-.474,2.729,2.729,0,0,0,.444-1.821Z" transform="translate(67.967 40.6)" fill="#58595b"/>
    </g>
  </g>
</svg>
