<svg xmlns="http://www.w3.org/2000/svg" width="64.651" height="61.794" viewBox="0 0 64.651 61.794"><defs><clipPath id="a"><path fill="none" stroke="#000" d="M0 0h64.651v61.794H0z"/></clipPath></defs><g clip-path="url(#a)"><path d="M44.569 50.636h5.139V23.755a4.85 4.85 0 1 0-5.341 0v22.337" fill="none" stroke="#000" stroke-linecap="round" stroke-linejoin="round"/><path d="M54.3 44.825v-4.922h2.31v-3.666h-6.89V48.49h6.891v-3.665zM53.482.534H40.628a10.635 10.635 0 1 0 0 21.27h2.046a4.767 4.767 0 0 1-.062-4.06h-2.165a6.575 6.575 0 0 1 0-13.149h13.216a6.575 6.575 0 0 1 0 13.149h-2.2a4.767 4.767 0 0 1-.062 4.06h2.08a10.635 10.635 0 0 0 0-21.27zM41.449 25.98H6.14a5.606 5.606 0 0 0-5.606 5.606v24.068A5.606 5.606 0 0 0 6.14 61.26h35.31a5.606 5.606 0 0 0 5.606-5.606V53.72M10.706 25.98h26.178v-2.114M28.695 5.754a12.629 12.629 0 0 0-4.9-.9 13.088 13.088 0 0 0-13.089 13.093v3.013" fill="none" stroke="#000" stroke-linecap="round" stroke-linejoin="round"/><path d="M26.09 41.18a1.927 1.927 0 1 0-2.712 1.758v4.613a.784.784 0 0 0 1.569 0v-4.613a1.926 1.926 0 0 0 1.143-1.758"/></g></svg>