<svg id="Group_203" data-name="Group 203" xmlns="http://www.w3.org/2000/svg" xmlns:xlink="http://www.w3.org/1999/xlink" width="129.967" height="40" viewBox="0 0 129.967 40">
  <defs>
    <clipPath id="clip-path">
      <rect id="Rectangle_97" data-name="Rectangle 97" width="129.967" height="40" fill="none"/>
    </clipPath>
  </defs>
  <path id="Path_180" data-name="Path 180" d="M44.119,8.573h2.4l1.777,5.663h.022l1.777-5.663h2.4v7.472H51.055V9.879h-.023l-2.009,6.166H47.588L45.576,9.879l-.022.022v6.144H44.119Z" transform="translate(4.148 0.941)" fill="#9a9a99"/>
  <rect id="Rectangle_95" data-name="Rectangle 95" width="1.499" height="7.472" transform="translate(59.624 9.514)" fill="#9a9a99"/>
  <path id="Path_181" data-name="Path 181" d="M58.563,8.573h1.842l2.847,5.587h.019V8.573h1.435v7.472H62.877l-2.859-5.588H60v5.588H58.563Z" transform="translate(5.398 0.941)" fill="#9a9a99"/>
  <rect id="Rectangle_96" data-name="Rectangle 96" width="1.498" height="7.472" transform="translate(73.042 9.514)" fill="#9a9a99"/>
  <g id="Group_202" data-name="Group 202" transform="translate(0 0)">
    <g id="Group_201" data-name="Group 201" clip-path="url(#clip-path)">
      <path id="Path_182" data-name="Path 182" d="M75.166,10.075a4.24,4.24,0,0,0-1.653-.349,1.13,1.13,0,0,0-1.281,1.13c0,1.408,3.561.813,3.561,3.537,0,1.78-1.407,2.455-3.049,2.455a7.116,7.116,0,0,1-2.081-.313l.15-1.466a3.926,3.926,0,0,0,1.84.5c.614,0,1.444-.314,1.444-1.047,0-1.55-3.563-.908-3.563-3.6,0-1.815,1.409-2.479,2.839-2.479a6.142,6.142,0,0,1,1.945.293Z" transform="translate(6.167 0.738)" fill="#9a9a99"/>
      <path id="Path_183" data-name="Path 183" d="M77.684,9.854H75.436V8.574h6.127v1.28H79.313V16.7H77.684Z" transform="translate(6.595 0.749)" fill="#9a9a99"/>
      <path id="Path_184" data-name="Path 184" d="M82.021,8.573h4.8v1.28H83.652v2h2.9v1.279h-2.9v2.283h3.194V16.7H82.021Z" transform="translate(7.171 0.749)" fill="#9a9a99"/>
      <path id="Path_185" data-name="Path 185" d="M88.2,8.573h1.755c1.746,0,3.831-.058,3.831,2.2a1.858,1.858,0,0,1-1.676,1.886v.024c.44.034.7.477.861.838l1.3,3.177H92.458l-.979-2.537c-.233-.606-.442-.838-1.13-.838h-.523V16.7H88.2Zm1.628,3.47h.536c.8,0,1.721-.116,1.721-1.13,0-.978-.908-1.059-1.721-1.059h-.536Z" transform="translate(7.711 0.749)" fill="#9a9a99"/>
      <path id="Path_186" data-name="Path 186" d="M99.4,10.075a4.242,4.242,0,0,0-1.654-.349,1.13,1.13,0,0,0-1.281,1.13c0,1.408,3.565.813,3.565,3.537,0,1.78-1.41,2.455-3.051,2.455a7.12,7.12,0,0,1-2.084-.313l.15-1.466a3.932,3.932,0,0,0,1.839.5c.618,0,1.445-.314,1.445-1.047,0-1.55-3.562-.908-3.562-3.6,0-1.815,1.407-2.479,2.84-2.479a6.128,6.128,0,0,1,1.943.293Z" transform="translate(8.285 0.738)" fill="#9a9a99"/>
      <path id="Path_187" data-name="Path 187" d="M101.919,9.854H99.667V8.574h6.13v1.28h-2.249V16.7h-1.629Z" transform="translate(8.714 0.749)" fill="#9a9a99"/>
      <path id="Path_188" data-name="Path 188" d="M104.594,8.573h1.743l2.086,6.378h.024l2.06-6.378h1.617L109.387,16.7h-2Z" transform="translate(9.145 0.749)" fill="#9a9a99"/>
      <path id="Path_189" data-name="Path 189" d="M116.176,8.444c2.551,0,3.982,1.726,3.982,4.18s-1.409,4.224-3.982,4.224c-2.6,0-3.981-1.732-3.981-4.224s1.4-4.18,3.981-4.18m0,7.125c1.666,0,2.283-1.479,2.283-2.945,0-1.431-.663-2.9-2.283-2.9s-2.279,1.468-2.279,2.9c0,1.466.614,2.945,2.279,2.945" transform="translate(9.809 0.738)" fill="#9a9a99"/>
      <path id="Path_190" data-name="Path 190" d="M44.122,18.411h1.63V21.9l2.933-3.492h2l-3.341,3.829,3.479,4.3H48.7l-2.919-3.771h-.025v3.771h-1.63Z" transform="translate(3.858 1.61)" fill="#9a9a99"/>
      <path id="Path_191" data-name="Path 191" d="M51.21,18.411h1.629V23.1c0,1.385.443,2.294,1.69,2.294s1.684-.909,1.684-2.294v-4.69h1.63V23.6c0,2.176-1.233,3.071-3.314,3.071S51.21,25.778,51.21,23.6Z" transform="translate(4.477 1.61)" fill="#9a9a99"/>
      <path id="Path_192" data-name="Path 192" d="M59.442,18.411h1.63v6.844h3.06v1.28h-4.69Z" transform="translate(5.197 1.61)" fill="#9a9a99"/>
      <path id="Path_193" data-name="Path 193" d="M65.193,19.69H62.944V18.41h6.129v1.28h-2.25v6.845h-1.63Z" transform="translate(5.503 1.609)" fill="#9a9a99"/>
      <path id="Path_194" data-name="Path 194" d="M69.48,18.411h1.63V23.1c0,1.385.439,2.294,1.684,2.294s1.69-.909,1.69-2.294v-4.69h1.629V23.6c0,2.176-1.234,3.071-3.319,3.071S69.48,25.778,69.48,23.6Z" transform="translate(6.075 1.61)" fill="#9a9a99"/>
      <path id="Path_195" data-name="Path 195" d="M77.642,18.411H79.4c1.745,0,3.829-.059,3.829,2.2A1.859,1.859,0,0,1,81.552,22.5v.024c.445.034.7.477.861.838l1.3,3.177H81.9L80.926,24c-.234-.607-.444-.838-1.131-.838h-.523v3.375h-1.63Zm1.63,3.469h.534c.8,0,1.724-.116,1.724-1.131,0-.977-.908-1.059-1.724-1.059h-.534Z" transform="translate(6.788 1.61)" fill="#9a9a99"/>
      <path id="Path_196" data-name="Path 196" d="M86.134,23.323l-2.968-4.912h1.91L87,21.82l1.954-3.409h1.724l-2.912,4.912v3.212H86.134Z" transform="translate(7.271 1.61)" fill="#9a9a99"/>
      <path id="Path_197" data-name="Path 197" d="M1.347,18.543c0-.582.027-1.167.079-1.741l-.881-.084-.46-.041C.028,17.291,0,17.919,0,18.543a19.963,19.963,0,0,0,8.987,16.7l.743-1.122A18.626,18.626,0,0,1,1.347,18.543" transform="translate(0 1.458)" fill="#9a9a99"/>
      <path id="Path_198" data-name="Path 198" d="M19.279,36.447a18.582,18.582,0,0,1-10.272-3.08L8.264,34.49A20.009,20.009,0,0,0,37.62,25.778l-1.236-.538A18.654,18.654,0,0,1,19.279,36.447" transform="translate(0.723 2.207)" fill="#005dac"/>
      <path id="Path_199" data-name="Path 199" d="M34.659,9.624l-1.185.645A18.684,18.684,0,0,1,34.18,26.6l1.236.538a19.842,19.842,0,0,0,1.657-7.984,20.041,20.041,0,0,0-2.414-9.535" transform="translate(2.927 0.841)" fill="#ffc700"/>
      <path id="Path_200" data-name="Path 200" d="M18.783,1.347a18.653,18.653,0,0,1,16.4,9.763l1.184-.645A20.025,20.025,0,0,0,13.928.595L14.255,1.9a18.759,18.759,0,0,1,4.528-.554" transform="translate(1.218 0)" fill="#40bbf0"/>
      <path id="Path_201" data-name="Path 201" d="M1.42,18.211A18.651,18.651,0,0,1,15.466,1.853L15.139.546A20,20,0,0,0,.079,18.087h0l.459.04Z" transform="translate(0.007 0.048)" fill="#d1000d"/>
      <path id="Path_202" data-name="Path 202" d="M17.47,25.626l-.24,3.54a10.792,10.792,0,0,0,6.844-1.1l-2.112-4.039a6.306,6.306,0,0,1-2.953.723,6.386,6.386,0,0,1-6.378-6.379l.041-.72-1.141-.128a7.436,7.436,0,0,0-.057.9,7.322,7.322,0,0,0,5.995,7.209" transform="translate(1.003 1.531)" fill="#9a9a99"/>
      <path id="Path_203" data-name="Path 203" d="M10.15,19.175a9.279,9.279,0,0,0,.671,3.453l-1.666.53a12.826,12.826,0,0,0,1.285,2.321,10.977,10.977,0,0,0,6.992,4.337l.24-3.54a7.322,7.322,0,0,1-5.994-7.209,7.436,7.436,0,0,1,.057-.9,7.336,7.336,0,0,1,7.272-6.432V10.1a9.087,9.087,0,0,0-8.857,9.074" transform="translate(0.8 0.883)" fill="#ffc700"/>
      <path id="Path_204" data-name="Path 204" d="M7.6,22.265a13.158,13.158,0,0,1-.228-2.483A12.507,12.507,0,0,1,15.312,8.191l.432,1.118A11.022,11.022,0,0,1,19.638,8.6a11.188,11.188,0,0,1,9.017,4.649l3.358-2.371A15.16,15.16,0,0,0,4.824,22.874l2.1-.462Z" transform="translate(0.391 0.39)" fill="#005dac"/>
      <path id="Path_205" data-name="Path 205" d="M9.106,23.421a10.442,10.442,0,0,1-.769-4.053,11.087,11.087,0,0,1,7.175-10.36L15.081,7.89A12.507,12.507,0,0,0,7.136,19.481a13.24,13.24,0,0,0,.228,2.483,11.311,11.311,0,0,0,1.951,4.5l1.41-.638c-.037-.051-.072-.1-.109-.154A12.826,12.826,0,0,1,9.332,23.35Z" transform="translate(0.624 0.69)" fill="#fff"/>
      <path id="Path_206" data-name="Path 206" d="M19.31,8.268A11.07,11.07,0,0,0,8.241,19.336a10.462,10.462,0,0,0,.769,4.053l.225-.071,1.666-.53a9.28,9.28,0,0,1-.672-3.453,9.089,9.089,0,0,1,8.858-9.075c.075,0,.148-.005.223-.005a9.106,9.106,0,0,1,7.377,3.789l1.643-1.123,0,0A11.185,11.185,0,0,0,19.31,8.268" transform="translate(0.721 0.723)" fill="#40bbf0"/>
      <path id="Path_207" data-name="Path 207" d="M10.936,24.692a10.973,10.973,0,0,0,6.878,4.183A10.854,10.854,0,0,0,28.507,24.37l3.534,2.462A15.159,15.159,0,0,1,4.8,21.441l2.1-.461.669-.147a11.322,11.322,0,0,0,1.951,4.5l1.41-.637Z" transform="translate(0.419 1.821)" fill="#d1000d"/>
    </g>
  </g>
</svg>
