<svg id="Group_205" data-name="Group 205" xmlns="http://www.w3.org/2000/svg" xmlns:xlink="http://www.w3.org/1999/xlink" width="95.35" height="40" viewBox="0 0 95.35 40">
  <defs>
    <clipPath id="clip-path">
      <rect id="Rectangle_99" data-name="Rectangle 99" width="95.35" height="40" fill="none"/>
    </clipPath>
  </defs>
  <g id="Group_205-2" data-name="Group 205" transform="translate(0 0)" clip-path="url(#clip-path)">
    <path id="Path_208" data-name="Path 208" d="M15.352,36.922a.475.475,0,1,1,.535.408.386.386,0,0,1-.065.006.477.477,0,0,1-.47-.413m2.295.135a.475.475,0,1,1,.133.019.45.45,0,0,1-.133-.019m1.515-.786a.472.472,0,1,1,.234.063.475.475,0,0,1-.234-.063m-5.411-.1a.476.476,0,1,1,.3.1.467.467,0,0,1-.3-.1m22.194-.538a.475.475,0,0,1,.093-.946h0a.475.475,0,0,1-.043.948.374.374,0,0,1-.047,0m-6.355-.881a.476.476,0,1,1,.527.417c-.019,0-.036,0-.055,0a.477.477,0,0,1-.472-.421m4.215.3a.474.474,0,1,1,.171.032.457.457,0,0,1-.171-.032M20.5,34.759a.476.476,0,1,1,.668.082.485.485,0,0,1-.293.1.474.474,0,0,1-.375-.183m11.138-.447a.475.475,0,1,1,.62.259.464.464,0,0,1-.181.036.473.473,0,0,1-.439-.294m5.571-.135a.476.476,0,1,1,.672-.054v0a.482.482,0,0,1-.362.166.477.477,0,0,1-.31-.114m1.657-1.014a.476.476,0,1,1,.481.472h0a.478.478,0,0,1-.478-.472m2.1-.054a.476.476,0,1,1,.621.265.49.49,0,0,1-.177.034.478.478,0,0,1-.444-.3m-29.945.063h0a.475.475,0,1,1,.649-.179.48.48,0,0,1-.415.241.474.474,0,0,1-.234-.063m15.354-.019a.474.474,0,1,1,.23.061.468.468,0,0,1-.23-.061m-5.772-.6h0a.476.476,0,1,1,.512.435.245.245,0,0,1-.038,0,.476.476,0,0,1-.473-.437m3.9.264a.477.477,0,1,1,.086.008.414.414,0,0,1-.086-.008m18.161-.873a.475.475,0,1,1,.276.088.473.473,0,0,1-.276-.088m-33.4-.1a.478.478,0,1,1,.327.129.47.47,0,0,1-.327-.129m34.8-1.355a.474.474,0,1,1,.405.224.477.477,0,0,1-.405-.224m.441-2.04h0a.476.476,0,1,1,.945-.109v0a.476.476,0,0,1-.42.526c-.017,0-.036,0-.053,0a.475.475,0,0,1-.472-.422m-37.965.1h0A.475.475,0,1,1,7.315,28h0a.476.476,0,0,1-.78.547m-1.722-.7h0a.473.473,0,1,1,.226.059.467.467,0,0,1-.226-.059m40.825-.591a.476.476,0,0,1,.333-.584v0a.476.476,0,0,1,.251.917.5.5,0,0,1-.125.017.475.475,0,0,1-.459-.352m-42.492-1v0a.476.476,0,0,1,.8-.51h0a.476.476,0,1,1-.8.508m44-.266A.476.476,0,1,1,47.8,25.8h0a.47.47,0,0,1-.647.181m1.712-.736a.476.476,0,1,1,.649-.18h0a.473.473,0,0,1-.415.243.467.467,0,0,1-.232-.063m.571-1.712a.476.476,0,1,1,.649-.18h0a.471.471,0,0,1-.647.18M2.1,24.423h0a.478.478,0,1,1,.411.235.478.478,0,0,1-.411-.235m.451-1.711a.479.479,0,1,1,.211.048.488.488,0,0,1-.211-.048m45.41-.278a.476.476,0,1,1,.573-.761h0a.476.476,0,1,1-.571.761M2.112,20.849a.479.479,0,1,1,.336.138.478.478,0,0,1-.336-.138m44.634-.3a.476.476,0,1,1,.631.233.486.486,0,0,1-.2.044.48.48,0,0,1-.434-.278m-1.541.08a.486.486,0,1,1,.066,0c-.021,0-.043,0-.066,0m-1.949-.563h0a.476.476,0,0,1,.027-.952h0a.476.476,0,0,1-.011.952Zm-2.194-.344a.475.475,0,1,1,.672.027.478.478,0,0,1-.672-.027M.6,19.382a.478.478,0,1,1,.342.143A.477.477,0,0,1,.6,19.382m31.446-.407a.475.475,0,1,1,.666.089.475.475,0,0,1-.666-.089m1.892-.651a.477.477,0,0,1-.069-.67h0a.477.477,0,1,1,.067.67m5.756-.287h0a.476.476,0,1,1,.66.127.469.469,0,0,1-.267.082.474.474,0,0,1-.393-.209M.156,17.476a.474.474,0,1,1,.32.124.47.47,0,0,1-.32-.124m1.651.023a.474.474,0,0,1-.122-.662h0a.476.476,0,1,1,.391.746.466.466,0,0,1-.268-.084m33.4-.436h0a.475.475,0,0,1,.946-.1.477.477,0,0,1-.422.523.439.439,0,0,1-.052,0,.474.474,0,0,1-.472-.425m-4.129.065a.477.477,0,1,1,.382.192.476.476,0,0,1-.382-.192m7.693-.477a.475.475,0,1,1,.542.4.454.454,0,0,1-.072.006.475.475,0,0,1-.47-.4m-1.694-.234v0a.478.478,0,1,1,.342.145.475.475,0,0,1-.342-.145M3.215,15.963a.476.476,0,1,1,.59.325.449.449,0,0,1-.131.019.479.479,0,0,1-.459-.344m26.547-.38h0a.473.473,0,1,1,.342.146.476.476,0,0,1-.342-.146m5.423-.453a.475.475,0,1,1,.521.425l-.05,0a.474.474,0,0,1-.471-.426M7.165,14.955a.478.478,0,1,1,.381.188.477.477,0,0,1-.381-.188m22.8-.936a.475.475,0,1,1,.336.141.473.473,0,0,1-.336-.141m-21.1-.282a.476.476,0,1,1,.655.155.485.485,0,0,1-.252.07.475.475,0,0,1-.4-.225m18.167-.529a.475.475,0,1,1,.293.1.476.476,0,0,1-.293-.1M12.7,12.034a.476.476,0,1,1,.672.017.47.47,0,0,1-.327.129.477.477,0,0,1-.344-.146m12.731.015a.477.477,0,1,1,.2.045.481.481,0,0,1-.2-.045M14.176,10.79a.476.476,0,1,1,.548.39.385.385,0,0,1-.08.008.476.476,0,0,1-.468-.4m4.741-.084a.476.476,0,1,1,.634.223.467.467,0,0,1-.206.047.473.473,0,0,1-.428-.27m-1.412-.721a.475.475,0,1,1,.67.07.486.486,0,0,1-.3.107.473.473,0,0,1-.369-.177M15.531,9.66A.476.476,0,1,1,16.11,10a.5.5,0,0,1-.118.015.478.478,0,0,1-.461-.36m6.781.076h0a.479.479,0,1,1,.4.209.475.475,0,0,1-.4-.209M20.748,9.7a.476.476,0,1,1,.639-.206h0a.48.48,0,0,1-.424.259.471.471,0,0,1-.217-.053" transform="translate(0 -4.356)" fill="#db0724"/>
    <path id="Path_209" data-name="Path 209" d="M12.014,39.865a2.466,2.466,0,0,1-1.451-4.46l12.17-8.841L10.563,17.72a2.466,2.466,0,0,1,2.9-3.989L28.376,24.569a2.466,2.466,0,0,1,0,3.989L13.462,39.394a2.457,2.457,0,0,1-1.448.471" transform="translate(-4.725 -6.563)" fill="#082c61"/>
    <path id="Path_210" data-name="Path 210" d="M49.461,64.028a2.467,2.467,0,0,1-2.344-1.7L43.691,51.778a2.465,2.465,0,0,1,4.689-1.523L51.807,60.8a2.465,2.465,0,0,1-1.584,3.105,2.438,2.438,0,0,1-.762.122" transform="translate(-21.562 -24.028)" fill="#db0724"/>
    <path id="Path_211" data-name="Path 211" d="M67.178,39.646H56.09a2.465,2.465,0,1,1,0-4.93H67.178a2.465,2.465,0,1,1,0,4.93" transform="translate(-26.539 -17.181)" fill="#db0724"/>
    <path id="Path_212" data-name="Path 212" d="M46.036,15.476a2.5,2.5,0,0,1-.762-.12,2.465,2.465,0,0,1-1.584-3.107L47.118,1.7a2.465,2.465,0,0,1,4.689,1.523L48.38,13.772a2.466,2.466,0,0,1-2.344,1.7" transform="translate(-21.562 0)" fill="#db0724"/>
    <path id="Path_213" data-name="Path 213" d="M109.907,12.8v4.322H107.9V9.412h1.913l3.174,4.342V9.412h2.006v7.712h-1.912Z" transform="translate(-53.399 -4.658)" fill="#082c61"/>
    <path id="Path_214" data-name="Path 214" d="M126.93,16.9a1.919,1.919,0,0,1-1.53.682,1.6,1.6,0,0,1-1.757-1.623,1.643,1.643,0,0,1,1.84-1.612,2.192,2.192,0,0,1,1.3.362V14.5c0-.734-.4-.941-1.116-.941a6.592,6.592,0,0,0-1.272.176l-.02-1.468a7.97,7.97,0,0,1,1.716-.166c1.644,0,2.522.765,2.522,1.964v3.339H126.93Zm0-5.4h-1.478l.775-1.52h2.13ZM126.8,15.93a.6.6,0,0,0-.631-.61.618.618,0,0,0-.661.61.641.641,0,0,0,.661.662.616.616,0,0,0,.631-.662" transform="translate(-61.19 -4.942)" fill="#082c61"/>
    <path id="Path_215" data-name="Path 215" d="M137.251,19.566h-1.84V14.4h1.747v1.158c.155-.382.713-1.209,1.5-1.209h.186v2.016a1.062,1.062,0,0,0-.331-.041c-.775,0-1.261.434-1.261.755Z" transform="translate(-67.014 -7.099)" fill="#082c61"/>
    <path id="Path_216" data-name="Path 216" d="M149.253,16.8a3.1,3.1,0,1,1-3.091-2.823,2.9,2.9,0,0,1,3.091,2.823m-4.28,0a1.195,1.195,0,1,0,2.388,0,1.195,1.195,0,1,0-2.388,0" transform="translate(-70.804 -6.917)" fill="#082c61"/>
    <path id="Path_217" data-name="Path 217" d="M160.69,16a2.273,2.273,0,0,1-1.913.941,2.512,2.512,0,0,1-2.419-2.708,2.581,2.581,0,0,1,2.419-2.791,2.3,2.3,0,0,1,1.789.827V8.716h1.84V16.78H160.69Zm-1.272-2.978A1.139,1.139,0,0,0,158.26,14.2a1.152,1.152,0,0,0,1.158,1.168,1.168,1.168,0,1,0,0-2.337" transform="translate(-77.38 -4.313)" fill="#082c61"/>
    <path id="Path_218" data-name="Path 218" d="M172.121,19.5h-1.84V14.326h1.737V15a2.182,2.182,0,0,1,1.706-.8,1.792,1.792,0,0,1,1.829,1.912V19.5h-1.829V16.672c0-.61-.331-.848-.786-.848a.793.793,0,0,0-.817.755Z" transform="translate(-84.271 -7.028)" fill="#082c61"/>
    <path id="Path_219" data-name="Path 219" d="M184.452,17.409h-1.819V12.239h1.819Zm-.145-5.9h-1.478l.775-1.519h2.13Z" transform="translate(-90.384 -4.942)" fill="#082c61"/>
    <path id="Path_220" data-name="Path 220" d="M109.5,39.51v2.864h-1.84V35h1.716v.765a2.277,2.277,0,0,1,1.912-.93,2.518,2.518,0,0,1,2.419,2.708,2.588,2.588,0,0,1-2.419,2.791,2.3,2.3,0,0,1-1.789-.827m1.138-.755a1.142,1.142,0,0,0,1.168-1.168,1.154,1.154,0,0,0-1.168-1.168,1.168,1.168,0,1,0,0,2.337" transform="translate(-53.278 -17.241)" fill="#082c61"/>
    <rect id="Rectangle_98" data-name="Rectangle 98" width="1.819" height="8.064" transform="translate(61.219 14.867)" fill="#082c61"/>
    <path id="Path_221" data-name="Path 221" d="M129.469,37.618a1.919,1.919,0,0,1-1.53.682,1.6,1.6,0,0,1-1.757-1.623,1.643,1.643,0,0,1,1.84-1.612,2.192,2.192,0,0,1,1.3.362V35.22c0-.734-.4-.941-1.116-.941a6.592,6.592,0,0,0-1.272.176l-.02-1.468a7.97,7.97,0,0,1,1.716-.166c1.644,0,2.522.765,2.522,1.964v3.339h-1.685Zm0-5.4h-1.478l.775-1.52h2.13Zm-.134,4.425a.6.6,0,0,0-.63-.61.618.618,0,0,0-.662.61.641.641,0,0,0,.662.662.616.616,0,0,0,.63-.662" transform="translate(-62.446 -15.194)" fill="#082c61"/>
    <path id="Path_222" data-name="Path 222" d="M139.789,40.212h-1.84V35.043h1.737v.672a2.18,2.18,0,0,1,1.706-.8,1.792,1.792,0,0,1,1.829,1.912v3.381h-1.829V37.39c0-.61-.331-.848-.786-.848a.793.793,0,0,0-.817.755Z" transform="translate(-68.27 -17.281)" fill="#082c61"/>
    <path id="Path_223" data-name="Path 223" d="M113.449,58.234a3.1,3.1,0,1,1-3.091-2.823,2.9,2.9,0,0,1,3.091,2.823m-4.28,0a1.195,1.195,0,1,0,2.388,0,1.195,1.195,0,1,0-2.388,0" transform="translate(-53.086 -27.422)" fill="#082c61"/>
    <path id="Path_224" data-name="Path 224" d="M124.59,58.38a2.277,2.277,0,0,1-1.912-.93v.765h-1.716V50.151h1.84v3.556a2.3,2.3,0,0,1,1.789-.827,2.589,2.589,0,0,1,2.419,2.791,2.518,2.518,0,0,1-2.419,2.709m-.651-1.582a1.154,1.154,0,0,0,1.168-1.168,1.141,1.141,0,0,0-1.168-1.168,1.168,1.168,0,1,0,0,2.336" transform="translate(-59.863 -24.819)" fill="#082c61"/>
    <path id="Path_225" data-name="Path 225" d="M136.3,60.93h-1.84V55.761H136.2v.672a2.179,2.179,0,0,1,1.706-.8,1.792,1.792,0,0,1,1.829,1.912V60.93H137.9V58.107c0-.61-.331-.848-.786-.848a.793.793,0,0,0-.817.755Z" transform="translate(-66.544 -27.534)" fill="#082c61"/>
    <path id="Path_226" data-name="Path 226" d="M152.466,58.234a3.1,3.1,0,1,1-3.091-2.823,2.9,2.9,0,0,1,3.091,2.823m-4.28,0a1.195,1.195,0,1,0,2.388,0,1.195,1.195,0,1,0-2.388,0" transform="translate(-72.395 -27.422)" fill="#082c61"/>
    <path id="Path_227" data-name="Path 227" d="M162.766,61.051h-2.222l-2.006-5.169h2.047l1.086,3.287,1.168-3.287h1.913Z" transform="translate(-78.459 -27.655)" fill="#082c61"/>
    <path id="Path_228" data-name="Path 228" d="M174.961,63.253h-1.9l.724-2.016-2.347-5.355h2.077l1.189,3.256,1.085-3.256H177.7Z" transform="translate(-84.842 -27.655)" fill="#082c61"/>
  </g>
</svg>
